<?xml version="1.0" standalone="no"?>
<!DOCTYPE svg PUBLIC "-//W3C//DTD SVG 20010904//EN"
 "http://www.w3.org/TR/2001/REC-SVG-20010904/DTD/svg10.dtd">
<svg version="1.0" xmlns="http://www.w3.org/2000/svg"
 width="512.000000pt" height="512.000000pt" viewBox="0 0 512.000000 512.000000"
 preserveAspectRatio="xMidYMid meet">
<metadata>
Created by potrace 1.14, written by Peter Selinger 2001-2017
</metadata>
<g transform="translate(0.000000,512.000000) scale(0.100000,-0.100000)"
fill="#000000" stroke="none">
<path d="M3488 4815 c-2 -2 -50 -13 -106 -25 -57 -11 -122 -27 -145 -34 -23
-8 -78 -25 -122 -39 -101 -32 -259 -97 -263 -108 -2 -5 -14 -9 -27 -9 -13 0
-25 -5 -27 -11 -2 -5 -10 -11 -18 -12 -8 -2 -26 -10 -40 -18 -14 -9 -61 -38
-105 -64 -71 -43 -221 -148 -235 -164 -3 -3 -27 -24 -54 -45 -99 -80 -285
-276 -361 -380 -16 -23 -35 -45 -41 -51 -26 -22 -188 -277 -273 -427 -18 -32
-34 -58 -35 -58 -2 0 -3 108 -2 240 1 132 -2 240 -5 240 -20 0 -133 -116 -217
-225 -25 -31 -110 -180 -138 -240 -45 -97 -84 -195 -77 -195 3 0 1 -6 -4 -12
-6 -7 -13 -25 -17 -40 -3 -15 -11 -40 -18 -55 -6 -15 -13 -36 -14 -45 -2 -10
-13 -53 -25 -95 -11 -43 -23 -87 -25 -98 -2 -11 -6 -31 -9 -45 -3 -14 -8 -36
-10 -50 -3 -14 -8 -38 -11 -55 -4 -16 -8 -43 -9 -60 -2 -16 -4 -30 -5 -30 -2
0 -7 -29 -14 -90 -2 -22 -7 -58 -10 -80 -15 -118 -23 -203 -31 -341 -11 -172
-13 -384 -3 -384 4 0 8 4 8 10 0 10 28 73 102 230 28 58 54 114 59 125 9 21
67 130 130 245 93 172 340 557 378 590 4 3 25 30 47 60 23 30 50 65 60 76 11
12 37 43 59 70 106 127 310 319 450 422 39 28 75 56 82 62 7 5 14 10 17 10 3
0 34 18 68 41 90 58 321 166 393 184 6 1 17 5 25 8 8 3 29 8 45 12 22 4 12 -4
-35 -32 -86 -51 -194 -125 -198 -135 -2 -4 -10 -8 -17 -8 -7 0 -15 -3 -17 -7
-1 -5 -21 -21 -43 -37 -52 -38 -198 -161 -250 -209 -155 -146 -262 -257 -368
-382 -38 -44 -82 -95 -98 -113 -16 -18 -29 -35 -29 -38 0 -3 -24 -35 -53 -72
-29 -37 -71 -94 -93 -127 -21 -33 -42 -62 -45 -65 -28 -25 -201 -335 -192
-344 4 -3 2 -6 -4 -6 -29 0 -144 -348 -158 -475 -2 -22 -7 -56 -11 -75 -16
-77 -6 -462 12 -492 3 -5 8 -24 11 -41 7 -50 74 -240 91 -259 8 -10 12 -18 8
-18 -3 0 5 -18 19 -40 14 -22 25 -42 25 -46 0 -10 71 -115 124 -184 67 -87
122 -145 171 -178 22 -15 42 -29 45 -32 20 -20 197 -105 270 -129 163 -54 161
-54 460 -56 250 -1 339 6 400 32 19 8 42 14 57 15 7 1 10 5 7 10 -3 5 -9 6
-14 3 -37 -23 -365 -24 -470 -1 -8 1 -33 6 -55 10 -22 4 -47 10 -55 13 -8 4
-21 5 -27 4 -7 -1 -13 4 -13 10 0 7 -3 10 -6 6 -13 -13 -235 84 -303 132 -16
12 -32 21 -36 21 -15 0 -143 107 -210 175 -83 85 -117 125 -151 182 -14 24
-30 43 -35 43 -5 0 -9 7 -9 15 0 8 -13 35 -30 61 -16 26 -27 51 -24 55 3 5 0
9 -5 9 -6 0 -11 4 -11 9 0 5 -5 22 -12 38 -6 15 -12 30 -13 33 -1 3 -11 37
-24 75 -12 39 -24 86 -26 105 -2 19 -5 35 -5 35 -14 0 -20 290 -7 364 11 72
39 175 49 189 6 6 8 12 4 12 -3 0 3 17 15 38 99 182 256 331 434 411 28 12 62
29 77 37 15 8 30 15 33 14 39 -3 32 9 -35 60 -33 25 -59 47 -59 50 0 3 48 34
107 70 189 115 595 388 707 477 6 4 48 37 95 73 85 65 112 86 134 105 6 6 38
32 71 60 33 27 78 66 100 85 68 60 318 313 358 362 21 26 43 53 50 60 7 7 32
40 56 73 25 33 48 62 53 63 4 2 8 7 8 12 0 5 17 35 38 67 22 32 54 85 72 118
18 33 35 65 39 70 3 6 6 12 7 15 0 3 15 37 33 75 18 39 34 78 36 87 2 9 9 26
15 37 6 12 7 21 3 21 -4 0 -3 4 3 8 11 7 55 162 74 262 6 30 13 65 16 78 l4
23 -284 -1 c-156 -1 -285 -3 -288 -5z"/>
<path d="M3178 2693 c-3 -35 -6 -38 -33 -38 -41 0 -49 -34 -8 -36 15 -1 31 -1
36 0 4 0 7 -14 7 -33 0 -19 5 -38 11 -41 18 -11 24 2 28 62 1 6 16 13 34 15
20 2 32 8 32 18 0 10 -10 15 -32 15 -18 -1 -34 3 -34 7 -1 4 -3 13 -4 18 -1 6
-3 19 -4 30 -2 37 -30 22 -33 -17z"/>
<path d="M2597 2474 c-4 -4 -7 -20 -7 -36 0 -26 -12 -34 -44 -29 -13 3 -36
-20 -30 -30 3 -5 20 -9 39 -9 32 0 34 -2 37 -37 4 -48 32 -54 34 -8 1 17 2 33
3 37 1 4 16 8 34 10 45 4 43 31 -3 38 -31 4 -35 8 -35 34 0 29 -14 43 -28 30z"/>
<path d="M3990 2221 c0 -10 19 -25 25 -20 1 2 -3 10 -11 17 -8 7 -14 8 -14 3z"/>
<path d="M4008 2133 c14 -124 6 -310 -18 -433 -22 -108 -119 -360 -139 -360
-4 0 -8 -6 -8 -13 0 -14 -55 -100 -80 -125 -7 -7 -13 -18 -13 -23 0 -22 -221
-229 -302 -282 -120 -80 -302 -164 -390 -181 -13 -2 -30 -7 -38 -10 -17 -6
-50 -12 -125 -23 -64 -10 -305 -9 -370 1 -57 9 -73 13 -140 30 -60 15 -136 42
-192 68 -37 17 -70 32 -73 32 -12 2 -135 81 -138 88 -2 4 -10 8 -18 8 -8 0
-14 4 -14 8 0 4 -13 15 -29 25 -54 32 -286 276 -263 277 4 0 -1 5 -10 11 -10
5 -18 17 -18 24 0 8 -4 15 -10 15 -5 0 -10 4 -10 9 0 6 -10 26 -21 46 -16 27
-25 33 -33 25 -7 -7 -7 -13 -1 -18 6 -4 11 -16 13 -27 3 -20 82 -196 92 -205
3 -3 18 -26 32 -51 59 -101 227 -284 321 -348 12 -8 24 -17 27 -21 10 -12 147
-90 157 -90 6 0 13 -4 15 -8 8 -19 244 -102 333 -117 86 -14 103 -16 187 -18
49 -1 88 -6 88 -10 0 -5 5 -5 12 -1 6 4 27 8 47 9 154 10 280 40 428 102 18 7
36 13 39 12 4 0 10 3 13 8 3 4 31 21 61 37 125 65 299 211 390 327 19 24 38
46 42 47 4 2 8 10 8 18 0 8 5 14 10 14 6 0 10 4 10 9 0 5 17 38 38 72 77 126
150 331 158 439 1 19 3 35 4 35 5 0 12 109 12 185 0 107 -5 180 -13 180 -3 0
-5 10 -4 23 4 36 -51 237 -65 237 -4 0 -5 -26 -2 -57z"/>
<path d="M3376 2069 c-3 -8 -6 -25 -8 -39 -2 -18 -9 -25 -25 -26 -40 -2 -43
-4 -43 -19 0 -15 6 -17 48 -18 19 0 22 -5 22 -39 0 -32 3 -39 18 -36 12 2 17
13 17 36 -1 17 4 32 10 33 22 1 59 10 64 14 10 10 -21 30 -47 30 -22 1 -27 5
-27 28 -1 32 -22 58 -29 36z"/>
<path d="M1924 2008 c-5 -7 -7 -24 -6 -38 2 -22 -2 -25 -30 -25 -38 0 -55 -34
-19 -36 12 -1 27 -2 34 -3 17 -1 26 -28 15 -49 -6 -13 -5 -19 7 -23 22 -9 30
2 30 39 0 28 4 32 29 34 53 4 62 33 12 38 -32 4 -47 13 -45 28 5 42 -11 62
-27 35z"/>
<path d="M2619 1853 c-1 -10 -2 -26 -2 -35 0 -10 -5 -19 -11 -19 -6 -1 -21 -3
-34 -4 -12 -1 -26 -5 -29 -9 -8 -8 13 -30 30 -32 7 0 20 -2 29 -2 11 -1 17
-10 16 -24 -2 -39 2 -48 17 -48 10 0 15 11 15 35 0 24 5 35 15 35 8 0 16 -1
18 -2 1 -1 13 4 26 12 22 11 23 14 8 25 -9 7 -28 11 -42 9 -14 -1 -23 2 -20 6
3 5 1 11 -3 14 -5 3 -8 17 -7 31 2 16 -2 25 -11 25 -8 0 -15 -8 -15 -17z"/>
<path d="M3187 1524 c-4 -4 -7 -22 -7 -41 0 -31 -2 -33 -35 -33 -29 0 -35 -4
-35 -20 0 -12 6 -20 13 -19 46 6 57 -1 57 -35 0 -58 33 -54 36 4 3 40 3 42 15
35 16 -10 61 4 56 18 -2 7 -18 14 -37 17 -27 4 -33 10 -36 34 -3 31 -16 50
-27 40z"/>
<path d="M2134 1419 c-4 -7 -7 -24 -8 -38 -1 -21 -7 -27 -34 -31 -18 -3 -33
-8 -32 -12 0 -5 0 -12 0 -18 0 -5 15 -10 34 -10 32 0 35 -2 34 -30 -1 -32 15
-59 26 -42 3 5 7 23 8 41 2 30 16 38 52 32 12 -3 26 21 20 31 -3 4 -20 8 -39
8 -26 0 -34 4 -34 18 1 43 -14 71 -27 51z"/>
<path d="M1540 1375 c0 -16 16 -20 24 -6 3 5 -1 11 -9 15 -9 3 -15 0 -15 -9z"/>
<path d="M2892 1300 c5 -31 -6 -40 -47 -40 -12 0 -25 -6 -28 -14 -6 -16 13
-26 49 -26 21 0 24 -5 24 -34 0 -31 14 -55 25 -44 5 4 13 43 14 65 1 6 16 13
34 15 20 2 32 8 32 18 0 10 -12 16 -32 18 -18 2 -34 7 -34 13 -1 5 -3 14 -4
19 -1 6 -3 17 -4 25 0 8 -8 15 -17 15 -12 0 -15 -7 -12 -30z"/>
</g>
</svg>
